# xmcd CD database file
#
# Track frame offsets:
#	150
#	40871
#	79878
#	105734
#	147883
#	151285
#	187480
#	220325
#	251470
#
# Disc length: 3806 seconds
#
# Revision: 0
# Processed by: cddbd v1.5.2PL0 Copyright (c) Steve Scherf et al.
# Submitted via: CDex 1.70beta2
#
DISCID=7f0edc09
DTITLE=Felix Heydemann -  Exclusive Freak Show
DYEAR=2007
DGENRE=Jazz
TTITLE0=New Ways at 2nd Avenue
TTITLE1=Women and Becks Energy
TTITLE2=Hip Teens
TTITLE3=Just Open
TTITLE4=Interlude
TTITLE5=Gut Gelaunt
TTITLE6=Exclusive Freak Show
TTITLE7=A Silent Search
TTITLE8=Water Seasons
EXTD=YEAR: 2007
EXTT0=
EXTT1=
EXTT2=
EXTT3=
EXTT4=
EXTT5=
EXTT6=
EXTT7=
EXTT8=
PLAYORDER=
